<?xml version="1.0" encoding="UTF-8"?>
<svg version="1.1" xmlns="http://www.w3.org/2000/svg" width="333" height="276">
<path d="M0 0 C109.89 0 219.78 0 333 0 C333 91.08 333 182.16 333 276 C223.11 276 113.22 276 0 276 C0 184.92 0 93.84 0 0 Z " fill="#FEFEFE" transform="translate(0,0)"/>
<path d="M0 0 C5.43094457 1.9191461 8.46743438 4.84713454 11 10 C11.25164884 12.72556438 11.35155913 15.20926454 11.29296875 17.92578125 C11.28872391 18.67337204 11.28447906 19.42096283 11.28010559 20.19120789 C11.26339056 22.56534732 11.22575347 24.93861967 11.1875 27.3125 C11.17244381 28.92772206 11.15875703 30.54295751 11.14648438 32.15820312 C11.1135108 36.10579988 11.06177969 40.05275322 11 44 C7.04 44 3.08 44 -1 44 C-1.33 42.68 -1.66 41.36 -2 40 C-2.5775 40.474375 -3.155 40.94875 -3.75 41.4375 C-8.20628332 44.5321412 -13.72520123 44.81361714 -19 44 C-22.34357599 42.29640208 -24.45373157 39.91872418 -26.375 36.6875 C-27.44527416 32.08532111 -28.29897756 28.15933932 -25.796875 24 C-23.21460941 20.86998111 -20.8865989 18.36556177 -17 17 C-14.21175242 16.86002773 -11.53172884 16.8111087 -8.75 16.875 C-8.00492188 16.88402344 -7.25984375 16.89304688 -6.4921875 16.90234375 C-4.66131941 16.92581642 -2.83061762 16.96168475 -1 17 C-1.96776098 13.20452079 -1.96776098 13.20452079 -4 10 C-6.67058851 9.85884839 -9.32432238 9.95752893 -12 10 C-12.66 11.32 -13.32 12.64 -14 14 C-17.63 14 -21.26 14 -25 14 C-24.93032569 10.51628457 -24.81133452 7.92141508 -22.4453125 5.234375 C-15.42828942 -0.76357834 -8.99867877 -0.82565197 0 0 Z " fill="#0D0D0D" transform="translate(156,112)"/>
<path d="M0 0 C3.96 0 7.92 0 12 0 C9.77014092 7.77554757 7.10279178 15.30817018 4.25 22.875 C1.1670388 31.11849695 -1.87282373 39.36980005 -4.75 47.6875 C-7.68860581 56.18140848 -10.79801566 64.60212167 -14 73 C-17.96 73 -21.92 73 -26 73 C-25.49063902 68.1610707 -23.94464844 64.14000576 -22.1015625 59.69140625 C-19.85929257 54.21295241 -17.92367887 48.61594127 -15.953125 43.03515625 C-12.11715796 32.19723568 -8.06312554 21.44307761 -4.01074219 10.68457031 C-2.67032025 7.12435785 -1.33480753 3.56232074 0 0 Z " fill="#0A0A0A" transform="translate(202,91)"/>
<path d="M0 0 C0 3.63 0 7.26 0 11 C-0.71542969 11.29132813 -1.43085937 11.58265625 -2.16796875 11.8828125 C-9.88024217 15.05552007 -17.4513306 18.45699549 -25 22 C-16.72845318 25.50236667 -8.3992771 28.81640303 0 32 C0 35.63 0 39.26 0 43 C-4.72836808 42.44622716 -8.17998378 41.09706322 -12.375 38.875 C-20.08842878 34.86642155 -28.00936515 31.41418034 -36 28 C-36.13504138 26.06440687 -36.23201129 24.126128 -36.3125 22.1875 C-36.37050781 21.10855469 -36.42851563 20.02960938 -36.48828125 18.91796875 C-36 16 -36 16 -33.91796875 14.30078125 C-28.58698944 11.92432059 -28.58698944 11.92432059 -26.09228516 10.88818359 C-23.56261904 9.81433 -21.07024497 8.66939568 -18.57421875 7.51953125 C-17.13272461 6.85727539 -17.13272461 6.85727539 -15.66210938 6.18164062 C-13.65846744 5.25941279 -11.65588191 4.33488673 -9.65429688 3.40820312 C-8.69974609 2.97056641 -7.74519531 2.53292969 -6.76171875 2.08203125 C-5.89506592 1.68218018 -5.02841309 1.2823291 -4.13549805 0.87036133 C-2 0 -2 0 0 0 Z " fill="#0E0E0E" transform="translate(120,108)"/>
<path d="M0 0 C3.7790703 0.75581406 5.71951441 1.17585223 8.890625 2.890625 C9.59646729 3.26840088 10.30230957 3.64617676 11.02954102 4.03540039 C11.76229248 4.43621826 12.49504395 4.83703613 13.25 5.25 C14.00273193 5.65532959 14.75546387 6.06065918 15.53100586 6.47827148 C20.71173563 9.2746913 25.87128917 12.10927208 31 15 C30.58020894 18.99501155 29.83240915 22.40644205 28 26 C24.31823143 28.56496543 20.25398869 29.66235689 16 31 C13.49051962 31.98208567 10.99355941 32.97974765 8.5 34 C7.23600354 34.5034246 5.97168219 35.00603428 4.70703125 35.5078125 C0.20984292 37.31806112 -4.25218244 39.20539004 -8.70703125 41.1171875 C-11 42 -11 42 -13 42 C-12.54177532 38.53058454 -12.10868317 35.32604951 -11 32 C-8.83984375 30.82421875 -8.83984375 30.82421875 -5.9375 29.6875 C-4.33455078 29.05328125 -4.33455078 29.05328125 -2.69921875 28.40625 C-0.86810547 27.71015625 -0.86810547 27.71015625 1 27 C1.70431152 26.731875 2.40862305 26.46375 3.13427734 26.1875 C7.74767066 24.43503932 12.37056568 22.70960075 17 21 C10.43279372 17.10345761 3.88411391 13.30967015 -3 10 C-2.01 6.7 -1.02 3.4 0 0 Z " fill="#0C0C0C" transform="translate(239,109)"/>
<path d="M0 0 C1.08667969 0.02707031 2.17335937 0.05414063 3.29296875 0.08203125 C4.54013672 0.13423828 4.54013672 0.13423828 5.8125 0.1875 C6.125 3.4375 6.125 3.4375 5.8125 7.1875 C3.05047863 10.45170707 1.43681852 11.11215121 -2.8125 11.625 C-6.1875 11.1875 -6.1875 11.1875 -8.125 10 C-9.57468434 7.52700907 -9.61067323 6.00865488 -9.1875 3.1875 C-6.68860986 -0.42773281 -4.1728356 -0.1346076 0 0 Z " fill="#ECECEC" transform="translate(149.1875,135.8125)"/>
<path d="M0 0 C2.62576255 0.04235101 3.84003475 0.08080188 6.125 1.4375 C7.125 3.25 7.125 3.25 7.125 8.25 C2.505 8.25 -2.115 8.25 -6.875 8.25 C-6.875 7.59 -6.875 6.93 -6.875 6.25 C-10.175 6.25 -13.475 6.25 -16.875 6.25 C-16.875 5.92 -16.875 5.59 -16.875 5.25 C-13.245 5.25 -9.615 5.25 -5.875 5.25 C-5.545 3.93 -5.215 2.61 -4.875 1.25 C-3.875 0.25 -3.875 0.25 0 0 Z " fill="#EAEAEA" transform="translate(147.875,120.75)"/>
</svg>
